<svg width="638" height="337" viewBox="0 0 638 337" fill="none" xmlns="http://www.w3.org/2000/svg">
<path d="M5.78162 171.417C8.29197 167.128 12.2312 160.702 17.1079 153.811C18.2702 152.172 18.8751 150.27 18.85 148.334C18.6842 136.495 21.9622 92.022 80.456 91.015C119.829 90.3371 137.766 112.8 141.115 131.528C143.687 145.918 141.436 170.164 123.801 189.856C121.424 192.476 120.214 195.781 120.401 199.141L122.333 230.347C122.378 231.073 122.255 231.8 121.974 232.483C121.692 233.165 121.256 233.79 120.694 234.318C120.131 234.846 119.453 235.267 118.701 235.555C117.95 235.842 117.14 235.991 116.321 235.991H60.8951C59.6165 235.991 58.3878 235.55 57.4681 234.761C56.5483 233.972 56.0094 232.897 55.9649 231.761L55.0843 209.3C55.0843 209.3 42.1394 212.138 30.535 213.862C29.5103 214.015 28.4607 213.975 27.4548 213.743C26.4489 213.512 25.5093 213.094 24.6972 212.518C23.8851 211.943 23.2188 211.221 22.7417 210.401C22.2646 209.581 21.9875 208.681 21.9285 207.759C21.4997 201.042 20.8774 191.193 20.5544 185.596L8.55622 179.64C6.98094 178.859 5.81011 177.563 5.29212 176.028C4.77412 174.493 4.9497 172.839 5.78162 171.417Z" fill="#9EBFFF"/>
<path d="M55.0816 209.3L86.9776 202.74C87.6072 202.614 88.2665 202.687 88.8421 202.947C89.4176 203.206 89.8733 203.636 90.1309 204.161C90.3884 204.687 90.4315 205.276 90.2529 205.827C90.0743 206.378 89.6852 206.856 89.1524 207.18L55.7825 227.176L55.0816 209.3Z" fill="#464965"/>
<path d="M118.341 142.379C117.563 142.488 116.768 142.319 116.128 141.911C115.489 141.503 115.056 140.888 114.923 140.198C114.79 139.508 114.968 138.8 115.418 138.226C115.869 137.652 116.555 137.259 117.33 137.131C119.518 136.851 121.739 136.855 123.926 137.141C124.317 137.192 124.717 137.162 125.093 137.053C125.469 136.945 125.812 136.761 126.095 136.516C126.378 136.271 126.594 135.971 126.726 135.64C126.858 135.309 126.903 134.955 126.856 134.606C126.577 132.591 126.148 130.594 125.572 128.63C125.267 127.591 124.604 126.663 123.676 125.976C122.748 125.289 121.601 124.877 120.396 124.798C117.27 124.61 114.138 125.058 111.238 126.11C110.882 126.259 110.496 126.344 110.103 126.361C109.71 126.378 109.317 126.326 108.946 126.208C108.576 126.09 108.235 125.908 107.944 125.673C107.652 125.438 107.416 125.154 107.248 124.838C107.08 124.521 106.984 124.179 106.965 123.83C106.946 123.48 107.005 123.131 107.138 122.802C107.271 122.473 107.476 122.17 107.74 121.911C108.005 121.653 108.324 121.443 108.68 121.293C111.189 120.337 113.854 119.743 116.573 119.533C117.061 119.497 117.528 119.344 117.926 119.091C118.323 118.837 118.636 118.493 118.831 118.095C119.026 117.696 119.096 117.258 119.034 116.827C118.971 116.397 118.778 115.989 118.476 115.647C117.666 114.727 116.801 113.847 115.883 113.011C113.632 110.973 110.916 109.388 107.917 108.361C104.918 107.335 101.707 106.891 98.4988 107.061L98.2821 107.072C97.178 107.133 96.1 107.396 95.1157 107.844C94.1315 108.293 93.2622 108.917 92.5624 109.678C91.8625 110.439 91.3473 111.321 91.0491 112.267C90.7508 113.214 90.6759 114.204 90.829 115.178C91.0305 116.547 91.1518 117.925 91.1923 119.305C91.2097 119.728 91.362 120.138 91.6316 120.488C91.9012 120.837 92.2769 121.111 92.7151 121.278C94.5495 121.985 96.2398 122.957 97.7179 124.153C98.326 124.622 98.7064 125.282 98.7794 125.995C98.8524 126.708 98.6124 127.418 98.1097 127.977C97.8448 128.25 97.5204 128.472 97.1561 128.63C96.7918 128.788 96.3951 128.879 95.99 128.897C95.585 128.915 95.1801 128.86 94.7997 128.735C94.4194 128.61 94.0716 128.418 93.7773 128.17C88.5869 123.798 79.4954 124.873 79.4056 124.883C78.6188 124.985 77.819 124.804 77.1822 124.381C76.5453 123.959 76.1236 123.328 76.0097 122.629C75.8958 121.931 76.0991 121.22 76.5749 120.654C77.0507 120.088 77.76 119.714 78.5468 119.613C79.8359 119.47 81.1351 119.411 82.4339 119.437C82.7911 119.443 83.1459 119.382 83.475 119.259C83.8041 119.135 84.1001 118.951 84.3437 118.719C84.5873 118.487 84.773 118.211 84.8886 117.911C85.0043 117.611 85.0473 117.292 85.0149 116.976C84.7727 114.718 84.2539 112.49 83.4677 110.332C83.0311 109.153 82.2588 108.094 81.2259 107.258C80.193 106.422 78.9345 105.837 77.5724 105.561C77.3834 105.521 77.1905 105.485 76.9937 105.452C72.8116 104.689 68.4603 105.267 64.7128 107.084C63.1203 107.824 61.7115 108.84 60.5701 110.073C59.4288 111.306 58.5782 112.731 58.0689 114.262C58.0689 114.262 44.3413 110.799 39.7658 122.467C39.7658 122.467 36.7151 131.199 46.121 134.813L55.6649 138.082C56.066 138.22 56.4947 138.283 56.9244 138.269C57.3542 138.254 57.776 138.161 58.1639 137.996C58.5519 137.831 58.8978 137.598 59.1803 137.31C59.4629 137.022 59.6762 136.685 59.807 136.321C60.4706 134.161 60.5935 131.897 60.1671 129.69C60.0131 129 60.1726 128.284 60.6107 127.699C61.0488 127.113 61.7298 126.705 62.5052 126.564C63.2807 126.423 64.0875 126.56 64.7496 126.945C65.4117 127.33 65.8753 127.933 66.0393 128.621C66.1139 128.94 67.1927 133.813 65.3575 138.465C65.0792 139.154 65.1142 139.911 65.455 140.577C65.7959 141.243 66.4158 141.765 67.1828 142.031L83.2359 147.529C83.7502 147.705 84.3057 147.765 84.8525 147.703C85.3994 147.642 85.9205 147.461 86.3692 147.176C86.8178 146.892 87.18 146.513 87.4233 146.074C87.6666 145.634 87.7833 145.148 87.7631 144.659L87.697 143.137C87.6771 142.785 87.7362 142.433 87.8707 142.101C88.0053 141.77 88.2126 141.465 88.4808 141.205C88.749 140.945 89.0726 140.735 89.4328 140.587C89.7931 140.439 90.1829 140.356 90.5795 140.343C90.9761 140.33 91.3717 140.387 91.7433 140.511C92.1149 140.635 92.4551 140.823 92.7442 141.065C93.0333 141.306 93.2655 141.596 93.4273 141.918C93.5891 142.24 93.6773 142.588 93.6868 142.94L93.9511 149.278C93.9751 149.857 94.1898 150.417 94.5685 150.888C94.9472 151.359 95.4733 151.722 96.0816 151.93L112.382 157.515C113.882 158.027 115.493 158.23 117.093 158.108C118.694 157.985 120.242 157.541 121.621 156.809C123 156.076 124.173 155.075 125.052 153.88C125.931 152.685 126.492 151.329 126.693 149.913C126.907 148.435 127.081 146.858 127.191 145.208C127.231 144.71 127.083 144.213 126.772 143.796C126.461 143.379 126.003 143.066 125.471 142.904C123.162 142.285 120.733 142.106 118.341 142.379Z" fill="#FFC19E"/>
<path d="M71.0341 136H65.7614L73.7955 112.727H80.1364L88.1591 136H82.8864L77.0568 118.045H76.875L71.0341 136ZM70.7045 126.852H83.1591V130.693H70.7045V126.852ZM95.8807 112.727V136H90.9602V112.727H95.8807Z" fill="white"/>
<path d="M151.425 188V137.091H162.188V179.126H184.013V188H151.425ZM208.343 188.746C204.416 188.746 201.035 187.95 198.201 186.359C195.384 184.752 193.213 182.482 191.688 179.548C190.164 176.598 189.401 173.11 189.401 169.083C189.401 165.156 190.164 161.709 191.688 158.742C193.213 155.776 195.359 153.464 198.127 151.807C200.911 150.15 204.175 149.321 207.921 149.321C210.44 149.321 212.785 149.727 214.955 150.539C217.143 151.335 219.049 152.536 220.673 154.143C222.313 155.751 223.589 157.773 224.501 160.209C225.412 162.628 225.868 165.462 225.868 168.71V171.619H193.627V165.056H215.9C215.9 163.531 215.569 162.181 214.906 161.004C214.243 159.828 213.323 158.908 212.146 158.245C210.986 157.566 209.636 157.226 208.095 157.226C206.487 157.226 205.062 157.599 203.819 158.344C202.593 159.074 201.632 160.06 200.936 161.303C200.24 162.529 199.883 163.896 199.867 165.404V171.643C199.867 173.533 200.215 175.165 200.911 176.54C201.623 177.916 202.626 178.977 203.919 179.722C205.211 180.468 206.744 180.841 208.517 180.841C209.694 180.841 210.771 180.675 211.749 180.344C212.727 180.012 213.563 179.515 214.259 178.852C214.955 178.189 215.486 177.377 215.85 176.416L225.644 177.062C225.147 179.416 224.128 181.471 222.587 183.227C221.062 184.967 219.09 186.326 216.671 187.304C214.268 188.265 211.492 188.746 208.343 188.746ZM243.666 188.721C241.23 188.721 239.059 188.298 237.154 187.453C235.248 186.591 233.74 185.324 232.629 183.65C231.536 181.96 230.989 179.855 230.989 177.336C230.989 175.215 231.378 173.433 232.157 171.991C232.936 170.55 233.997 169.39 235.339 168.511C236.681 167.633 238.206 166.97 239.913 166.523C241.636 166.075 243.443 165.76 245.332 165.578C247.552 165.346 249.342 165.131 250.701 164.932C252.06 164.716 253.046 164.402 253.659 163.987C254.272 163.573 254.579 162.96 254.579 162.148V161.999C254.579 160.424 254.082 159.206 253.088 158.344C252.11 157.483 250.718 157.052 248.911 157.052C247.006 157.052 245.489 157.474 244.362 158.32C243.235 159.148 242.49 160.192 242.125 161.452L232.331 160.656C232.828 158.336 233.806 156.331 235.264 154.641C236.723 152.934 238.604 151.625 240.907 150.713C243.227 149.785 245.912 149.321 248.961 149.321C251.082 149.321 253.112 149.57 255.051 150.067C257.007 150.564 258.739 151.335 260.247 152.379C261.771 153.423 262.973 154.765 263.851 156.406C264.729 158.03 265.169 159.977 265.169 162.247V188H255.126V182.705H254.828C254.214 183.898 253.394 184.951 252.367 185.862C251.339 186.757 250.105 187.461 248.663 187.975C247.221 188.472 245.556 188.721 243.666 188.721ZM246.699 181.413C248.257 181.413 249.632 181.106 250.825 180.493C252.019 179.863 252.955 179.018 253.634 177.957C254.314 176.897 254.654 175.695 254.654 174.353V170.301C254.322 170.517 253.866 170.715 253.286 170.898C252.723 171.063 252.085 171.221 251.372 171.37C250.66 171.503 249.947 171.627 249.235 171.743C248.522 171.842 247.876 171.933 247.296 172.016C246.053 172.199 244.967 172.489 244.039 172.886C243.111 173.284 242.39 173.823 241.877 174.502C241.363 175.165 241.106 175.994 241.106 176.988C241.106 178.43 241.628 179.532 242.672 180.294C243.733 181.04 245.075 181.413 246.699 181.413ZM273.384 188V149.818H283.65V156.48H284.048C284.744 154.11 285.912 152.321 287.553 151.111C289.194 149.884 291.083 149.271 293.221 149.271C293.751 149.271 294.323 149.304 294.936 149.371C295.549 149.437 296.088 149.528 296.552 149.644V159.04C296.055 158.891 295.367 158.759 294.488 158.643C293.61 158.527 292.806 158.469 292.077 158.469C290.519 158.469 289.127 158.808 287.901 159.488C286.691 160.151 285.73 161.079 285.018 162.272C284.322 163.465 283.974 164.841 283.974 166.398V188H273.384ZM312.616 165.926V188H302.027V149.818H312.119V156.555H312.566C313.412 154.334 314.828 152.577 316.817 151.285C318.806 149.976 321.217 149.321 324.051 149.321C326.702 149.321 329.014 149.901 330.986 151.061C332.958 152.221 334.491 153.878 335.585 156.033C336.679 158.17 337.225 160.723 337.225 163.689V188H326.636V165.578C326.653 163.241 326.056 161.419 324.846 160.109C323.636 158.784 321.971 158.121 319.85 158.121C318.425 158.121 317.165 158.427 316.071 159.04C314.994 159.654 314.149 160.549 313.536 161.725C312.939 162.885 312.633 164.286 312.616 165.926ZM353.675 188L339.108 137.091H350.866L359.293 172.464H359.716L369.013 137.091H379.08L388.352 172.538H388.8L397.226 137.091H408.984L394.417 188H383.927L374.233 154.715H373.835L364.165 188H353.675ZM414.546 188V149.818H425.136V188H414.546ZM419.866 144.896C418.291 144.896 416.941 144.374 415.814 143.33C414.704 142.27 414.148 141.002 414.148 139.527C414.148 138.069 414.704 136.817 415.814 135.773C416.941 134.713 418.291 134.183 419.866 134.183C421.44 134.183 422.782 134.713 423.893 135.773C425.02 136.817 425.583 138.069 425.583 139.527C425.583 141.002 425.02 142.27 423.893 143.33C422.782 144.374 421.44 144.896 419.866 144.896ZM453.927 149.818V157.773H430.934V149.818H453.927ZM436.154 140.67H446.743V176.267C446.743 177.245 446.893 178.007 447.191 178.554C447.489 179.084 447.903 179.457 448.434 179.673C448.981 179.888 449.61 179.996 450.323 179.996C450.82 179.996 451.317 179.954 451.814 179.871C452.312 179.772 452.693 179.697 452.958 179.648L454.623 187.528C454.093 187.693 453.347 187.884 452.386 188.099C451.425 188.331 450.257 188.472 448.881 188.522C446.329 188.621 444.092 188.282 442.17 187.503C440.264 186.724 438.781 185.514 437.72 183.874C436.659 182.233 436.137 180.161 436.154 177.659V140.67ZM472.235 165.926V188H461.646V137.091H471.937V156.555H472.384C473.246 154.301 474.638 152.536 476.561 151.26C478.483 149.967 480.894 149.321 483.794 149.321C486.446 149.321 488.758 149.901 490.73 151.061C492.718 152.205 494.259 153.853 495.353 156.008C496.463 158.146 497.01 160.706 496.994 163.689V188H486.404V165.578C486.421 163.225 485.824 161.394 484.615 160.085C483.421 158.775 481.748 158.121 479.593 158.121C478.151 158.121 476.875 158.427 475.765 159.04C474.671 159.654 473.81 160.549 473.18 161.725C472.567 162.885 472.252 164.286 472.235 165.926ZM514.301 188H502.767L520.342 137.091H534.212L551.762 188H540.228L527.476 148.724H527.078L514.301 188ZM513.58 167.989H540.825V176.391H513.58V167.989ZM557.896 188V149.818H568.485V188H557.896ZM563.215 144.896C561.641 144.896 560.29 144.374 559.164 143.33C558.053 142.27 557.498 141.002 557.498 139.527C557.498 138.069 558.053 136.817 559.164 135.773C560.29 134.713 561.641 134.183 563.215 134.183C564.79 134.183 566.132 134.713 567.242 135.773C568.369 136.817 568.933 138.069 568.933 139.527C568.933 141.002 568.369 142.27 567.242 143.33C566.132 144.374 564.79 144.896 563.215 144.896Z" fill="#9EBFFF"/>
</svg>
